<?xml version="1.0" encoding="utf-8"?>
<!-- Generator: Adobe Illustrator 23.0.0, SVG Export Plug-In . SVG Version: 6.00 Build 0)  -->
<svg version="1.1" id="Слой_1" xmlns="http://www.w3.org/2000/svg" xmlns:xlink="http://www.w3.org/1999/xlink" x="0px" y="0px"
	 viewBox="0 0 60 47.4" style="enable-background:new 0 0 60 47.4;" xml:space="preserve">
<style type="text/css">
	.st0{fill:#FFFFFF;}
</style>
<path class="st0" d="M51.8,0H8.2C3.7,0,0,3.7,0,8.2v35.7c0,1.5,0.9,2.8,2.3,3.3c0.4,0.1,0.8,0.2,1.2,0.2c1,0,2-0.4,2.7-1.2l6.9-8.1
	h38.7c4.5,0,8.2-3.7,8.2-8.2V8.2C60,3.7,56.3,0,51.8,0z M56,29.8c0,2.3-1.9,4.2-4.2,4.2H12.2c-0.6,0-1.1,0.3-1.5,0.7L4,42.6V8.2
	C4,5.9,5.9,4,8.2,4h43.6C54.1,4,56,5.9,56,8.2V29.8z"/>
</svg>
