<?xml version="1.0" encoding="utf-8"?>
<!-- Generator: Adobe Illustrator 23.0.0, SVG Export Plug-In . SVG Version: 6.00 Build 0)  -->
<svg version="1.1" id="Слой_1" xmlns="http://www.w3.org/2000/svg" xmlns:xlink="http://www.w3.org/1999/xlink" x="0px" y="0px"
	 viewBox="0 0 90.7 83.4" style="enable-background:new 0 0 90.7 83.4;" xml:space="preserve">
<path d="M82.9,7.9c-5-5.1-11.7-7.9-19-7.9c-7,0-13.8,2.7-18.6,7.4C40.3,2.6,33.7,0,26.7,0C19.5,0,12.8,2.8,7.8,7.8
	C2.7,12.9,0,19.6,0,26.8s2.8,13.9,7.8,19L44.9,83l0.4,0.4l37.6-37.6c5-5,7.8-11.7,7.8-18.9S87.9,12.9,82.9,7.9z M26.7,8.8
	c4.9,0,9.4,1.9,12.7,5.2l5.9,6l5.9-5.9c3.4-3.4,7.9-5.2,12.7-5.2c4.9,0,9.4,1.9,12.7,5.2c3.4,3.4,5.2,7.9,5.2,12.7
	s-1.8,9.1-5.2,12.5L45.3,70.7L14,39.4c-3.4-3.4-5.2-7.9-5.2-12.7c0-4.9,1.9-9.4,5.2-12.7C17.4,10.7,21.9,8.8,26.7,8.8z"/>
</svg>
