<?xml version="1.0" encoding="utf-8"?>
<!-- Generator: Adobe Illustrator 23.0.0, SVG Export Plug-In . SVG Version: 6.00 Build 0)  -->
<svg version="1.1" id="Слой_1" xmlns="http://www.w3.org/2000/svg" xmlns:xlink="http://www.w3.org/1999/xlink" x="0px" y="0px"
	 viewBox="0 0 67.5 48.2" style="enable-background:new 0 0 67.5 48.2;" xml:space="preserve">
<path d="M67.3,40.5c-5.2-10.9-15.7-25.3-35.6-27.1c-2.3-0.2-4.1-2.1-4.2-4.5c0-0.1,0-0.1,0-0.2c0-0.1,0-0.1,0-0.2V2.1h0
	c0-1.1-0.9-2.1-2.1-2.1c-0.5,0-1,0.2-1.3,0.5c0,0,0,0-0.1,0.1L1.7,20.2c0,0,0,0,0,0l-0.3,0.2c-0.9,0.8-1.4,2-1.4,3.3
	c0,1.2,0.4,2.2,1.1,3l0.8,0.7l21.9,20.1c0,0,0.1,0.1,0.1,0.1c0.4,0.3,0.9,0.5,1.4,0.5c1.2,0,2.1-0.9,2.1-2.1h0V38c0-0.1,0-0.1,0-0.2
	s0-0.1,0-0.2c0.1-2.5,2.2-4.5,4.7-4.5v0c12.8,0.3,23.3,1.9,31.6,9.4c0,0,0,0,0,0c0.2,0.1,0.3,0.3,0.5,0.4c0,0,0,0,0,0
	c0.3,0.2,0.7,0.4,1.2,0.4c1.2,0,2.1-0.9,2.1-2.1C67.5,41.1,67.4,40.8,67.3,40.5z"/>
</svg>
