<?xml version="1.0" encoding="utf-8"?>
<!-- Generator: Adobe Illustrator 23.0.0, SVG Export Plug-In . SVG Version: 6.00 Build 0)  -->
<svg version="1.1" id="Слой_1" xmlns="http://www.w3.org/2000/svg" xmlns:xlink="http://www.w3.org/1999/xlink" x="0px" y="0px"
	 viewBox="0 0 16 10" style="enable-background:new 0 0 16 10;" xml:space="preserve">
<g>
	<path d="M16,6.3C15.9,6.1,15.7,6,15.5,6H14V2c0-1.1-0.9-2-2-2H4.5l1.7,2H12v4h-1.5c-0.2,0-0.4,0.1-0.5,0.3C10,6.5,10,6.7,10.1,6.8
		l2.5,3C12.7,9.9,12.9,10,13,10s0.3-0.1,0.4-0.2l2.5-3C16,6.7,16,6.5,16,6.3z"/>
	<path d="M4,8V4h1.5C5.7,4,5.9,3.9,6,3.7C6,3.5,6,3.3,5.9,3.2l-2.5-3C3.3,0.1,3.1,0,3,0S2.7,0.1,2.6,0.2l-2.5,3C0,3.3,0,3.5,0,3.7
		C0.1,3.9,0.3,4,0.5,4H2v4c0,1.1,0.9,2,2,2h7.5L9.8,8H4z"/>
</g>
</svg>
