<?xml version="1.0" encoding="utf-8"?>
<!-- Generator: Adobe Illustrator 23.0.0, SVG Export Plug-In . SVG Version: 6.00 Build 0)  -->
<svg version="1.1" id="Слой_1" xmlns="http://www.w3.org/2000/svg" xmlns:xlink="http://www.w3.org/1999/xlink" x="0px" y="0px"
	 viewBox="0 0 22.2 14" style="enable-background:new 0 0 22.2 14;" xml:space="preserve">
<style type="text/css">
</style>
<path class="st0" d="M22.2,6.5C22.2,6.8,22,7,21.7,7h-5.1c-0.2,0-0.4-0.1-0.5-0.3l-2.5-5.1L8.1,13.7C8,13.9,7.8,14,7.6,14l0,0
	c-0.2,0-0.4-0.1-0.5-0.3L4.3,7H0.5C0.2,7,0,6.8,0,6.5S0.2,6,0.5,6h4.1C4.8,6,5,6.1,5.1,6.3l2.6,6l5.5-12C13.2,0.1,13.4,0,13.6,0
	c0.2,0,0.4,0.1,0.5,0.3L16.9,6h4.8C22,6,22.2,6.2,22.2,6.5z"/>
</svg>
