<?xml version="1.0" encoding="utf-8"?>
<!-- Generator: Adobe Illustrator 23.0.0, SVG Export Plug-In . SVG Version: 6.00 Build 0)  -->
<svg version="1.1" id="Слой_1" xmlns="http://www.w3.org/2000/svg" xmlns:xlink="http://www.w3.org/1999/xlink" x="0px" y="0px"
	 viewBox="0 0 60.2 60.2" style="enable-background:new 0 0 60.2 60.2;" xml:space="preserve">
<style type="text/css">
</style>
<g>
	<path class="st0" d="M50,40.1c-3.1,0-6,1.4-7.9,3.8L19.7,32.7c0.5-1.7,0.5-3.5,0-5.2l22.5-11.2c3.4,4.4,9.8,5.2,14.2,1.7
		s5.2-9.8,1.7-14.2s-9.8-5.2-14.2-1.7c-3.2,2.5-4.6,6.7-3.5,10.6L17.9,24c-3.4-4.3-9.7-5.1-14-1.7s-5.1,9.7-1.7,14s9.7,5.1,14,1.7
		c0.6-0.5,1.2-1.1,1.7-1.7l22.5,11.2c-1.4,5.3,1.7,10.8,7.1,12.2c5.3,1.4,10.8-1.7,12.2-7.1c1.4-5.3-1.7-10.8-7.1-12.2
		C51.8,40.3,50.9,40.1,50,40.1z M50,4.1c3.3,0,6,2.7,6,6s-2.7,6-6,6s-6-2.7-6-6S46.7,4.1,50,4.1z M10,36.1c-3.3,0-6-2.7-6-6
		s2.7-6,6-6s6,2.7,6,6S13.3,36.1,10,36.1z M50,56.1c-3.3,0-6-2.7-6-6s2.7-6,6-6s6,2.7,6,6S53.3,56.1,50,56.1z"/>
</g>
</svg>
