<svg width="70" height="70" viewBox="0 0 70 70" xmlns="http://www.w3.org/2000/svg" fill="#000">
<path d="M35 52.699C25.3008 52.699 17.301 44.8006 17.301 35C17.301 25.3008 25.1994 17.301 35 17.301C44.6992 17.301 52.699 25.1994 52.699 35C52.699 44.6992 44.699 52.699 35 52.699ZM35 21.301C27.5 21.301 21.301 27.4026 21.301 35C21.301 42.6016 27.5002 48.699 35 48.699C42.4998 48.699 48.699 42.4998 48.699 35C48.699 27.5002 42.4998 21.301 35 21.301Z"/>
<path d="M35 14.898C33.8984 14.898 33 13.9996 33 12.898V2C33 0.8984 33.8984 0 35 0C36.1016 0 37 0.89844 37 2V12.898C37 13.9996 36.1016 14.898 35 14.898Z"/>
<path d="M68 37H57.102C56.0004 37 55.102 36.1016 55.102 35C55.102 33.8984 56.0004 33 57.102 33H68C69.1016 33 70 33.8984 70 35C70 36.1016 69.1016 37 68 37Z"/>
<path d="M35 70C33.8984 70 33 69.1016 33 68V57.102C33 56.0004 33.8984 55.102 35 55.102C36.1016 55.102 37 56.0004 37 57.102V68C37 69.1016 36.1016 70 35 70Z"/>
<path d="M12.898 37H2C0.8984 37 0 36.1016 0 35C0 33.8984 0.89844 33 2 33H12.898C13.9996 33 14.898 33.8984 14.898 35C14.898 36.1016 13.9996 37 12.898 37Z"/>
<path d="M19.301 21.301C18.801 21.301 18.301 21.1018 17.9026 20.6994L10.2034 13.0002C9.40262 12.1995 9.40262 11.0002 10.2034 10.1994C11.0042 9.39864 12.2034 9.39866 13.0042 10.1994L20.7034 17.8986C21.5042 18.6994 21.5042 19.8986 20.7034 20.6994C20.3987 21.1994 19.8986 21.301 19.301 21.301Z"/>
<path d="M50.699 21.301C50.199 21.301 49.699 21.1018 49.3006 20.6994C48.4998 19.8987 48.4998 18.6994 49.3006 17.8986L56.9998 10.1994C57.8006 9.39866 58.9998 9.39866 59.8006 10.1994C60.6014 11.0002 60.6014 12.1994 59.8006 13.0002L52.1014 20.6994C51.6991 21.1994 51.199 21.301 50.699 21.301Z"/>
<path d="M58.398 60.398C57.898 60.398 57.398 60.1988 56.9996 59.7964L49.3004 52.0972C48.4996 51.2965 48.4996 50.0972 49.3004 49.2964C50.1012 48.4956 51.3004 48.4957 52.1012 49.2964L59.8004 56.9956C60.6012 57.7964 60.6012 58.9956 59.8004 59.7964C59.3981 60.1988 58.898 60.398 58.398 60.398Z"/>
<path d="M11.602 60.398C11.102 60.398 10.602 60.1988 10.2036 59.7964C9.40282 58.9957 9.40282 57.7964 10.2036 56.9956L17.9028 49.2964C18.7036 48.4957 19.9028 48.4957 20.7036 49.2964C21.5044 50.0972 21.5044 51.2964 20.7036 52.0972L13.0044 59.7964C12.6997 60.1988 12.1996 60.398 11.602 60.398Z"/>
</svg>
