<svg xmlns="http://www.w3.org/2000/svg" width="32" height="32" viewBox="0 0 32 32" fill="none"><metadata><rdf:RDF xmlns:rdf="http://www.w3.org/1999/02/22-rdf-syntax-ns#" xmlns:dc="http://purl.org/dc/elements/1.1/"><rdf:Description><dc:creator>RealFaviconGenerator</dc:creator><dc:source>https://realfavicongenerator.net</dc:source></rdf:Description></rdf:RDF></metadata><rect width="32" height="32" rx="16" fill="white"></rect><path d="M21.0376 9.66016H20.3813C20.272 9.26953 20.1626 8.92578 20.0532 8.62891C19.9595 8.33203 19.8423 8.06641 19.7017 7.83203C19.5767 7.58203 19.436 7.36328 19.2798 7.17578C19.1235 6.97266 18.9438 6.76172 18.7407 6.54297C17.8032 5.55859 16.7095 5.06641 15.4595 5.06641C14.6313 5.06641 13.9595 5.28516 13.4438 5.72266C12.9438 6.16016 12.6938 6.75391 12.6938 7.50391C12.6938 8.01918 12.847 8.50939 13.147 8.97852C13.5946 9.33256 13.9767 9.66598 14.269 9.94922C14.4607 10.1349 14.6216 10.3077 14.7388 10.4551C14.7731 10.4983 14.8057 10.5437 14.8364 10.5889C15.3321 10.9359 15.9224 11.2984 16.6079 11.6758C18.3892 12.6445 19.6704 13.5898 20.4517 14.5117C21.2485 15.4336 21.647 16.4414 21.647 17.5352C21.647 18.2227 21.5063 18.8633 21.2251 19.457C20.9438 20.0508 20.561 20.5664 20.0767 21.0039C19.5923 21.4414 19.0142 21.7852 18.3423 22.0352C17.6704 22.2852 16.9517 22.4102 16.186 22.4102C15.6392 22.4102 15.1001 22.3633 14.5688 22.2695C14.068 22.1812 13.5819 22.0354 13.1089 21.8359L13.0894 21.8604C13.0639 21.839 13.0375 21.8183 13.0112 21.7969C12.7498 21.705 12.5112 21.6361 12.2954 21.5898C12.0767 21.5273 11.897 21.4961 11.7563 21.4961C11.5532 21.4961 11.3813 21.582 11.2407 21.7539C11.2101 21.7913 11.1834 21.831 11.1587 21.8721C11.9316 22.3365 12.6678 22.8616 13.2837 23.457C14.2784 24.4187 14.9986 25.6025 14.9985 27.0352H13.9985C13.9986 25.9679 13.4685 25.0266 12.5884 24.1758C11.7051 23.3219 10.5081 22.599 9.2749 21.9824C8.04124 21.3656 6.81606 20.8764 5.86182 20.4629C5.39443 20.2604 4.97798 20.0699 4.67529 19.8926C4.52551 19.8048 4.3785 19.7062 4.26318 19.5947C4.16099 19.4959 3.99854 19.3055 3.99854 19.0352V10.0352H4.99854V18.9072C5.03697 18.9372 5.09508 18.9789 5.18115 19.0293C5.42528 19.1723 5.79031 19.3413 6.26025 19.5449C7.18098 19.9439 8.45598 20.4548 9.72217 21.0879C9.90706 21.1803 10.0925 21.2763 10.2778 21.375L9.91748 18.8115L9.49951 19.6475C8.55531 19.1744 7.62568 18.764 6.88037 18.4736C6.50737 18.3283 6.18534 18.2149 5.93408 18.1387C5.80828 18.1005 5.70473 18.0731 5.62451 18.0557C5.58461 18.047 5.55316 18.0413 5.52979 18.0381C5.50537 18.0347 5.49616 18.0352 5.49854 18.0352V17.0352C5.69468 17.0352 5.96185 17.1021 6.22412 17.1816C6.50789 17.2677 6.85516 17.391 7.24268 17.542C8.00793 17.8402 8.95073 18.255 9.90674 18.7324L9.62354 16.7148H10.2329C10.8183 18.1443 11.4749 19.2416 12.2026 20.0068C12.7552 20.3519 13.2662 20.7083 13.6929 21.0625C14.2829 21.3193 14.9339 21.4492 15.647 21.4492C16.6313 21.4492 17.4204 21.1758 18.0142 20.6289C18.6106 20.0937 18.9126 19.3938 18.9253 18.5293C18.3011 18.8872 17.7889 19.2539 17.4458 19.6133C17.0964 19.9793 16.9842 20.2727 17.0005 20.499L16.0024 20.5713C15.9564 19.9353 16.2896 19.3769 16.7231 18.9229C17.1626 18.4626 17.7703 18.0398 18.4331 17.6602L18.9253 18.5215C18.9255 18.5053 18.9282 18.489 18.9282 18.4727C18.9282 18.1289 18.8892 17.8242 18.811 17.5586C18.7485 17.293 18.6548 17.0664 18.5298 16.8789C18.2173 16.3789 17.7173 15.8633 17.0298 15.332C16.3579 14.8008 15.5454 14.2695 14.5923 13.7383C13.8423 13.3477 13.2017 12.957 12.6704 12.5664C12.1392 12.1758 11.7017 11.7695 11.3579 11.3477C11.0298 10.9258 10.7876 10.4883 10.6313 10.0352C10.4751 9.58203 10.397 9.08984 10.397 8.55859C10.397 7.07422 10.9126 5.91797 11.9438 5.08984C12.3813 4.73047 12.8657 4.45703 13.397 4.26953C13.9282 4.06641 14.4517 3.96484 14.9673 3.96484C15.436 3.96484 15.9048 4.01953 16.3735 4.12891C16.8579 4.22266 17.3501 4.36328 17.8501 4.55078C18.1001 4.66016 18.3267 4.73828 18.5298 4.78516C18.7329 4.83203 18.9048 4.85547 19.0454 4.85547C19.4829 4.85547 19.7642 4.55859 19.8892 3.96484H20.4517L21.0376 9.66016ZM27.0015 19.0352C27.0015 19.3054 26.839 19.4959 26.7368 19.5947C26.6215 19.7061 26.4744 19.8049 26.3247 19.8926C26.0221 20.0698 25.6055 20.2604 25.1382 20.4629C24.184 20.8764 22.9587 21.3656 21.7251 21.9824C20.4919 22.599 19.2949 23.322 18.4116 24.1758C17.5315 25.0266 17.0014 25.9679 17.0015 27.0352H16.0015C16.0014 25.6025 16.7216 24.4187 17.7163 23.457C18.7079 22.4985 20.0112 21.7212 21.2778 21.0879C22.544 20.4548 23.8191 19.9439 24.7397 19.5449C25.2096 19.3413 25.5748 19.1723 25.8188 19.0293C25.9048 18.9789 25.9631 18.9372 26.0015 18.9072V10.0352H27.0015V19.0352ZM14.9194 22.5664C14.974 22.7182 15.0083 22.8806 15.0083 23.0488H14.0083C14.0083 23.0155 14.0009 22.968 13.978 22.9043L14.9194 22.5664ZM17.0308 22.8906C17.0079 22.9543 17.0005 23.0019 17.0005 23.0352H16.0005C16.0005 22.8668 16.0348 22.7046 16.0894 22.5527L17.0308 22.8906ZM11.3179 17.0156C12.2565 17.4567 13.1692 17.9655 13.8442 18.5234C14.494 19.0605 15.0569 19.7535 14.9976 20.5713L14.4985 20.5352L14.0005 20.499C14.0222 20.1995 13.812 19.7936 13.2075 19.2939C12.6282 18.8151 11.8031 18.348 10.8921 17.9199L11.3179 17.0156ZM25.5015 18.0352C25.5032 18.0352 25.4954 18.0356 25.4761 18.0381C25.4569 18.0406 25.431 18.045 25.3979 18.0518C25.3307 18.0655 25.2436 18.0873 25.1372 18.1182C24.9245 18.18 24.6513 18.2725 24.3325 18.3926C23.6956 18.6324 22.8937 18.9741 22.0522 19.377L21.6206 18.4746C22.4843 18.0611 23.3133 17.7075 23.981 17.4561C24.3139 17.3307 24.6123 17.2286 24.8579 17.1572C25.0852 17.0912 25.321 17.0352 25.5015 17.0352V18.0352ZM6.05713 5.53906C7.48974 5.70922 9.0046 6.34688 10.3452 7.09863L9.85693 7.97168C8.75639 7.3545 7.58788 6.84961 6.49463 6.62305C6.49337 6.86044 6.4924 7.16119 6.49072 7.50684C6.48644 8.38858 6.48146 9.56518 6.47803 10.7451C6.4746 11.9255 6.47253 13.1086 6.4751 14.0029C6.47638 14.4501 6.4792 14.8235 6.48291 15.0879C6.48338 15.1213 6.48338 15.1531 6.48389 15.1826C6.67342 15.2458 6.9086 15.3222 7.22803 15.4287C7.87433 15.6442 8.75292 15.9462 9.68213 16.3135L9.49854 16.7783L9.31494 17.2441C8.40999 16.8865 7.55065 16.59 6.91162 16.377C6.60428 16.2745 6.31674 16.1815 6.13916 16.1221C6.04609 16.0909 5.96509 16.0631 5.90576 16.041C5.87749 16.0305 5.84489 16.0175 5.81494 16.0039C5.80108 15.9976 5.77536 15.9864 5.74756 15.9697C5.73394 15.9615 5.70957 15.9455 5.68213 15.9229C5.66337 15.9073 5.59756 15.8522 5.55029 15.7568C5.51995 15.6955 5.50996 15.6407 5.5083 15.6328C5.50432 15.6137 5.50175 15.5976 5.50049 15.5879C5.49789 15.5679 5.49566 15.5485 5.49463 15.5342C5.49247 15.504 5.49112 15.4671 5.48975 15.4277C5.48695 15.3476 5.4848 15.237 5.48291 15.1025C5.47912 14.8324 5.47639 14.4541 5.4751 14.0059C5.47252 13.1086 5.4746 11.923 5.47803 10.7422C5.48146 9.56135 5.48643 8.38407 5.49072 7.50195C5.49287 7.06109 5.49519 6.69354 5.49658 6.43652C5.49728 6.30801 5.49717 6.20653 5.49756 6.1377C5.49775 6.10356 5.49843 6.07733 5.49854 6.05957V6.03223L5.50146 5.47266L6.05713 5.53906ZM25.5015 6.03223V6.05957C25.5016 6.07733 25.5022 6.10356 25.5024 6.1377C25.5028 6.20653 25.5027 6.30801 25.5034 6.43652C25.5048 6.69354 25.5071 7.0611 25.5093 7.50195C25.5136 8.38407 25.5185 9.56135 25.522 10.7422C25.5254 11.923 25.5275 13.1086 25.5249 14.0059C25.5236 14.4541 25.5209 14.8324 25.5171 15.1025C25.5152 15.237 25.513 15.3476 25.5103 15.4277C25.5089 15.4671 25.5075 15.504 25.5054 15.5342C25.5043 15.5485 25.5021 15.5679 25.4995 15.5879C25.4982 15.5976 25.4957 15.6138 25.4917 15.6328C25.49 15.6407 25.48 15.6955 25.4497 15.7568C25.4041 15.8489 25.3413 15.9034 25.3218 15.9199C25.2947 15.9427 25.2701 15.9584 25.2563 15.9668C25.2288 15.9837 25.2036 15.9956 25.1899 16.002C25.1606 16.0155 25.1285 16.0281 25.1021 16.0381C25.0464 16.059 24.9711 16.0854 24.8853 16.1143C24.7145 16.1716 24.4621 16.2537 24.1704 16.3506C23.5777 16.5475 22.7757 16.8205 21.9185 17.1523L21.7378 16.6865L21.5571 16.2197C22.4364 15.8793 23.2559 15.6004 23.855 15.4014C24.1299 15.31 24.3496 15.2381 24.5161 15.1826C24.5166 15.1531 24.5166 15.1213 24.5171 15.0879C24.5208 14.8235 24.5236 14.4501 24.5249 14.0029C24.5275 13.1086 24.5254 11.9255 24.522 10.7451C24.5185 9.56518 24.5136 8.38858 24.5093 7.50684C24.5076 7.16213 24.5066 6.86208 24.5054 6.625C23.4669 6.84027 22.3593 7.30457 21.3062 7.88086L21.0669 7.44238L20.8267 7.00391C22.1227 6.29471 23.5701 5.70212 24.9429 5.53906L25.4985 5.47266L25.5015 6.03223ZM19.8921 8.72949C19.0662 9.10226 18.3112 9.52232 17.772 9.95508C17.206 10.4094 16.9986 10.7793 16.9985 11.0352H15.9985C15.9985 10.2912 16.5405 9.66074 17.146 9.1748C17.7786 8.66719 18.6184 8.20628 19.48 7.81738L19.8921 8.72949Z" fill="black"></path></svg>